# xmcd
#
# Track frame offsets:
#	150
#	20927
#	41137
#	61757
#	84432
#	105752
#	124012
#	152717
#	174090
#	200220
#	223625
#	246705
#	274022
#	294297
#
# Disc length: 4245 seconds
#
# Revision: 1
# Processed by: cddbd v1.5.2PL0 Copyright (c) Steve Scherf et al.
# Submitted via: audiograbber 1.83.01
#
DISCID=c610930e
DTITLE=Various Artist - Soul Mates - Urban Grooves
DYEAR=1997
DGENRE=Jazz
TTITLE0=George Howard - When Summer Comes
TTITLE1=Kenny Blake - An Initmate Affair
TTITLE2=Henry Johnson - Romance Me
TTITLE3=Joyce Cooling - Savannah
TTITLE4=Joe Mcbride - Highland Park
TTITLE5=Gerald Veasley - Lady
TTITLE6=Ray Gaskins - Shady Lane
TTITLE7=Thom Rotella - Lights Out
TTITLE8=Nelson Rangell - All For You
TTITLE9=Jason Miles - 7 Digits
TTITLE10=Spyro Gyra - The Unwritten Letter
TTITLE11=Mann Brother - Afternoon  Delight
TTITLE12=Urban Knights - Urban Paradise
TTITLE13=Jerald Daemyon - Thinking About You
EXTD=
EXTT0=
EXTT1=
EXTT2=
EXTT3=
EXTT4=
EXTT5=
EXTT6=
EXTT7=
EXTT8=
EXTT9=
EXTT10=
EXTT11=
EXTT12=
EXTT13=
PLAYORDER=
